<svg width="200" height="200" viewBox="0 0 200 200" xmlns="http://www.w3.org/2000/svg">
  <defs>
    <!-- Gradientes para el escudo -->
    <linearGradient id="shieldGradient" x1="0%" y1="0%" x2="100%" y2="100%">
      <stop offset="0%" stop-color="#000000"/>
      <stop offset="100%" stop-color="#222222"/>
    </linearGradient>
    
    <!-- Sombras suaves -->
    <filter id="softShadow" x="-20%" y="-20%" width="140%" height="140%">
      <feDropShadow dx="3" dy="5" stdDeviation="8" flood-color="#000000" flood-opacity="0.25"/>
    </filter>
    
    <!-- Patrón sutil para textura -->
    <pattern id="subtlePattern" x="0" y="0" width="15" height="15" patternUnits="userSpaceOnUse">
      <rect x="0" y="0" width="15" height="15" fill="#E0E0E0" opacity="0.05"/>
    </pattern>
  </defs>

  <!-- Fondo transparente -->
  <rect width="100%" height="100%" fill="none"/>

  <!-- ESCUDO PRINCIPAL -->
  <g filter="url(#softShadow)">
    <!-- Forma del escudo estilizado -->
    <path d="M100 40 
             C60 40 40 70 40 100 
             C40 140 70 160 100 165 
             C130 160 160 140 160 100 
             C160 70 140 40 100 40Z" 
          fill="url(#shieldGradient)"/>
    
    <!-- Highlight sutil en la parte superior -->
    <path d="M70 55 
             C85 50 115 50 130 55 
             C125 60 95 60 70 55Z" 
          fill="#E0E0E0" opacity="0.3"/>
    
    <!-- Textura sutil -->
    <path d="M100 40 
             C60 40 40 70 40 100 
             C40 140 70 160 100 165 
             C130 160 160 140 160 100 
             C160 70 140 40 100 40Z" 
          fill="url(#subtlePattern)"/>
    
    <!-- Borde doble para contraste -->
    <path d="M100 40 
             C60 40 40 70 40 100 
             C40 140 70 160 100 165 
             C130 160 160 140 160 100 
             C160 70 140 40 100 40Z" 
          fill="none" stroke="#E0E0E0" stroke-width="2"/>
    <path d="M100 40 
             C60 40 40 70 40 100 
             C40 140 70 160 100 165 
             C130 160 160 140 160 100 
             C160 70 140 40 100 40Z" 
          fill="none" stroke="#222222" stroke-width="0.5"/>
  </g>

  <!-- CANDADO CENTRAL - VERSIÓN MEJORADA -->
  <g transform="translate(100, 110)">
    <!-- Cuerpo del candado -->
    <rect x="-20" y="-20" width="40" height="30" rx="8" fill="#FF6F00"/>
    
    <!-- Arco del candado - MÁS ALTO Y ELEGANTE -->
    <path d="M-18 -20 
             C-18 -45 18 -45 18 -20 
             L18 -15 
             C18 -40 -18 -40 -18 -15Z" 
          fill="#FF6F00"/>
    
    <!-- Cerradura -->
    <rect x="-5" y="-10" width="10" height="6" rx="2" fill="#222222"/>
    
    <!-- Highlight sutil en el candado -->
    <rect x="-16" y="-18" width="8" height="8" rx="2" fill="#E0E0E0" opacity="0.4"/>
    
    <!-- Bordes dobles para el candado -->
    <rect x="-20" y="-20" width="40" height="30" rx="8" fill="none" stroke="#E0E0E0" stroke-width="1.2"/>
    <rect x="-20" y="-20" width="40" height="30" rx="8" fill="none" stroke="#222222" stroke-width="0.5"/>
    
    <!-- Bordes dobles para el arco -->
    <path d="M-18 -20 
             C-18 -45 18 -45 18 -20 
             L18 -15 
             C18 -40 -18 -40 -18 -15Z" 
          fill="none" stroke="#E0E0E0" stroke-width="1.2"/>
    <path d="M-18 -20 
             C-18 -45 18 -45 18 -20 
             L18 -15 
             C18 -40 -18 -40 -18 -15Z" 
          fill="none" stroke="#222222" stroke-width="0.5"/>
  </g>

  <!-- DETALLES DE SEGURIDAD -->
  <!-- Puntos de refuerzo alrededor del candado -->
  <circle cx="70" cy="95" r="3" fill="#6366F1" opacity="0.7"/>
  <circle cx="130" cy="95" r="3" fill="#14B8A6" opacity="0.7"/>
  <circle cx="100" cy="125" r="3" fill="#3B82F6" opacity="0.7"/>
  
  <!-- Líneas de protección radiales -->
  <path d="M100 75 L100 60 M100 140 L100 155 M75 100 L60 100 M140 100 L155 100" 
        stroke="#E0E0E0" stroke-width="1.5" stroke-linecap="round" opacity="0.3"/>
</svg>